<svg width="20.000000000000004" height="20.000000000000004" xmlns="http://www.w3.org/2000/svg">

 <g>
  <title>background</title>
  <rect fill="none" id="canvas_background" height="402" width="582" y="-1" x="-1"/>
 </g>
 <g>
  <title>Layer 1</title>
  <path fill="#bf0000" id="svg_1" d="m2.93,17.07a10,10 0 1 1 14.14,-14.14a10,10 0 0 1 -14.14,14.14zm1.41,-1.41a8,8 0 1 0 11.32,-11.32a8,8 0 0 0 -11.32,11.32zm9.9,-8.49l-2.83,2.83l2.83,2.83l-1.41,1.41l-2.83,-2.83l-2.83,2.83l-1.41,-1.41l2.83,-2.83l-2.83,-2.83l1.41,-1.41l2.83,2.83l2.83,-2.83l1.41,1.41z"/>
 </g>
</svg>