<svg width="64" height="64" xmlns="http://www.w3.org/2000/svg">
 <title/>

 <g>
  <title>background</title>
  <rect fill="none" id="canvas_background" height="402" width="582" y="-1" x="-1"/>
 </g>
 <g>
  <title>Layer 1</title>
  <path fill="#833ae0" id="svg_1" d="m16,26l8,0l0,24a2,2 0 0 0 2,2l12,0a2,2 0 0 0 2,-2l0,-24l8,0a2,2 0 0 0 1.4946,-3.3291l-16,-18a2,2 0 0 0 -2.9892,0l-16,18a2,2 0 0 0 1.4946,3.3291zm16,-16.9893l11.5464,12.9893l-5.5464,0a2,2 0 0 0 -2,2l0,24l-8,0l0,-24a2,2 0 0 0 -2,-2l-5.5464,0l11.5464,-12.9893z"/>
  <path fill="#833ae0" id="svg_2" d="m53,42a2,2 0 0 0 -2,2l0,10a2.0023,2.0023 0 0 1 -2,2l-34,0a2.0023,2.0023 0 0 1 -2,-2l0,-10a2,2 0 0 0 -4,0l0,10a6.0066,6.0066 0 0 0 6,6l34,0a6.0066,6.0066 0 0 0 6,-6l0,-10a2,2 0 0 0 -2,-2z"/>
 </g>
</svg>