<svg width="512" height="512" xmlns="http://www.w3.org/2000/svg">

 <g>
  <title>background</title>
  <rect fill="none" id="canvas_background" height="402" width="582" y="-1" x="-1"/>
 </g>
 <g>
  <title>Layer 1</title>
  <path stroke="#ff0000" fill="#ff0000" id="svg_3" d="m388.31,110.71l-63.59,0c-0.83,-37.2 -31.33,-67.21 -68.72,-67.21s-67.89,30.01 -68.72,67.21l-63.59,0c-24.34,0 -44.08,19.73 -44.08,44.08l0,1.25c0,24.34 19.73,44.08 44.08,44.08l264.61,0c24.34,0 44.08,-19.73 44.08,-44.08l0,-1.25c0,-24.35 -19.73,-44.08 -44.07,-44.08zm-132.31,-35.66c19.99,0 36.35,15.86 37.16,35.66l-74.33,0c0.82,-19.8 17.18,-35.66 37.17,-35.66z" class="st0"/>
  <path fill="#ff0000" id="svg_5" d="m123.7,231.66c-1.49,0 -2.97,-0.04 -4.43,-0.13l0,183.29c0,29.64 24.03,53.67 53.67,53.67l166.11,0c29.64,0 53.67,-24.03 53.67,-53.67l0,-183.28c-1.46,0.09 -2.94,0.13 -4.43,0.13l-264.59,0l0,-0.01zm107.25,178.25c0,8.71 -7.07,15.78 -15.78,15.78c-8.72,0 -15.78,-7.07 -15.78,-15.78l0,-115.63c0,-8.72 7.06,-15.78 15.78,-15.78c8.71,0 15.78,7.06 15.78,15.78l0,115.63zm81.65,0c0,8.71 -7.06,15.78 -15.78,15.78c-8.71,0 -15.78,-7.07 -15.78,-15.78l0,-115.63c0,-8.72 7.07,-15.78 15.78,-15.78c8.72,0 15.78,7.06 15.78,15.78l0,115.63z" class="st0"/>
 </g>
</svg>