<svg width="100" height="100" xmlns="http://www.w3.org/2000/svg">
 <title/>

 <g>
  <title>background</title>
  <rect fill="none" id="canvas_background" height="402" width="582" y="-1" x="-1"/>
 </g>
 <g>
  <title>Layer 1</title>
  <path fill="#833ae0" id="svg_1" d="m37,88a8,8 0 1 1 8,-8a8,8 0 0 1 -8,8zm0,-10a2,2 0 1 0 2,2a2,2 0 0 0 -2,-2z"/>
  <path fill="#833ae0" id="svg_2" d="m63,88a8,8 0 1 1 8,-8a8,8 0 0 1 -8,8zm0,-10a2,2 0 1 0 2,2a2,2 0 0 0 -2,-2z"/>
  <path fill="#833ae0" id="svg_3" d="m32,60l34,0a3.1,3.1 0 0 0 0.54,0l0.17,0l0.35,-0.11l0.18,-0.07a2.43,2.43 0 0 0 0.35,-0.2a0.33,0.33 0 0 0 0.1,-0.06a1.8,1.8 0 0 0 0.4,-0.33l0.1,-0.1a1.76,1.76 0 0 0 0.24,-0.3l0.1,-0.15a3.14,3.14 0 0 0 0.18,-0.31c0,-0.06 0.05,-0.11 0.07,-0.17l0,-0.07l13,-35a3,3 0 1 0 -5.59,-2.13l-1.13,3l-50.12,0l-1.13,-3a3,3 0 0 0 -2.81,-2l-7,0a3,3 0 0 0 0,6l4.91,0l10.89,29.31a8,8 0 0 0 2.2,15.69l41,0a3,3 0 0 0 0,-6l-41,0a2,2 0 0 1 0,-4zm12,-21l3,0l0,-3a3,3 0 0 1 6,0l0,3l3,0a3,3 0 0 1 0,6l-3,0l0,3a3,3 0 0 1 -6,0l0,-3l-3,0a3,3 0 0 1 0,-6z"/>
 </g>
</svg>